<svg width="224" height="48" viewBox="0 0 224 48" fill="none" xmlns="http://www.w3.org/2000/svg" role="img" aria-label="CareerHelper">
  <defs>
    <linearGradient id="ch-mark" x1="0%" y1="100%" x2="100%" y2="0%">
      <stop offset="0%" stop-color="#0D9488" />
      <stop offset="55%" stop-color="#14B8A6" />
      <stop offset="100%" stop-color="#34D399" />
    </linearGradient>
  </defs>
  <svg x="0" y="0" width="52" height="48" viewBox="145 155 520 520" preserveAspectRatio="xMidYMid meet">
    <g transform="translate(54.004995 767.479731) scale(0.092457 -0.092457)" fill="url(#ch-mark)">
      <path d="M5685 6114 c-110 -24 -254 -55 -320 -68 -166 -35 -650 -135 -705 -146 -283 -57 -432 -90 -449 -99 -27 -15 -41 -42 -41 -83 0 -30 20 -53 215 -243 119 -115 216 -215 215 -220 0 -15 -593 -605 -607 -605 -7 0 -45 21 -85 47 -92 59 -269 143 -373 177 -215 70 -486 94 -704 62 -696 -103 -1245 -648 -1347 -1337 -22 -155 -16 -402 16 -548 68 -321 221 -595 461 -826 218 -209 490 -350 794 -412 69 -14 137 -18 295 -18 178 0 219 3 308 23 385 86 725 300 942 593 134 181 133 229 -5 342 -147 120 -323 155 -484 95 -71 -27 -113 -53 -186 -117 -176 -154 -356 -224 -580 -224 -174 -1 -319 42 -461 135 -230 149 -365 367 -395 635 -46 417 229 813 643 925 108 29 326 31 428 4 105 -28 236 -99 345 -187 156 -127 236 -159 391 -159 115 0 180 13 264 53 58 27 108 73 460 424 218 216 400 393 405 393 5 0 111 -101 235 -225 222 -220 228 -225 268 -225 28 0 49 7 68 23 24 21 29 38 51 168 13 79 39 234 58 344 19 110 51 292 70 405 68 400 77 447 111 636 25 139 32 198 25 216 -11 28 -66 78 -86 78 -7 0 -19 2 -27 4 -7 2 -103 -16 -213 -40z" />
    </g>
  </svg>
  <text x="60" y="31.5" font-family="Inter, ui-sans-serif, system-ui, -apple-system, 'Segoe UI', sans-serif" font-size="22.5" font-weight="800" fill="#064E3B" letter-spacing="0">
    Career<tspan fill="#10B981">Helper</tspan>
  </text>
</svg>
